<?xml version="1.0" encoding="utf-8"?><!DOCTYPE svg PUBLIC "-//W3C//DTD SVG 1.1//EN" "http://www.w3.org/Graphics/SVG/1.1/DTD/svg11.dtd"><svg version="1.1" xmlns="http://www.w3.org/2000/svg" xmlns:xlink="http://www.w3.org/1999/xlink" width="24" height="24" viewBox="0 0 24 24" data-tags="message-typing"><g fill="#444" transform="scale(0.0234375 0.0234375)"><path d="M768 256h-554.667c-70.4 0-128 57.6-128 128v298.667c0 70.4 57.6 128 128 128h42.667v128l128-128h384c70.4 0 128-57.6 128-128v-298.667c0-70.4-57.6-128-128-128zM810.667 682.667c0 23.125-19.541 42.667-42.667 42.667h-554.667c-23.125 0-42.667-19.541-42.667-42.667v-298.667c0-23.125 19.541-42.667 42.667-42.667h554.667c23.125 0 42.667 19.541 42.667 42.667v298.667z" /><path d="M298.667 618.667c-47.104 0-85.333-38.229-85.333-85.333s38.229-85.333 85.333-85.333 85.333 38.229 85.333 85.333-38.229 85.333-85.333 85.333zM298.667 490.667c-23.552 0-42.667 19.115-42.667 42.667s19.115 42.667 42.667 42.667 42.667-19.115 42.667-42.667-19.115-42.667-42.667-42.667z" /><path d="M490.667 618.667c-47.104 0-85.333-38.229-85.333-85.333s38.229-85.333 85.333-85.333 85.333 38.229 85.333 85.333-38.229 85.333-85.333 85.333zM490.667 490.667c-23.552 0-42.667 19.115-42.667 42.667s19.115 42.667 42.667 42.667 42.667-19.115 42.667-42.667-19.115-42.667-42.667-42.667z" /><path d="M682.667 618.667c-47.104 0-85.333-38.229-85.333-85.333s38.229-85.333 85.333-85.333 85.333 38.229 85.333 85.333-38.229 85.333-85.333 85.333zM682.667 490.667c-23.552 0-42.667 19.115-42.667 42.667s19.115 42.667 42.667 42.667 42.667-19.115 42.667-42.667-19.115-42.667-42.667-42.667z" /></g></svg>